<svg width="24" height="25" viewBox="0 0 24 25" fill="none" xmlns="http://www.w3.org/2000/svg">
<path d="M2 19.5V8.5C2 7.70435 2.3163 6.94152 2.87891 6.37891C3.44152 5.8163 4.20435 5.5 5 5.5H11C11.5523 5.5 12 5.94772 12 6.5C12 7.05228 11.5523 7.5 11 7.5H5C4.73478 7.5 4.4805 7.60543 4.29297 7.79297C4.10543 7.9805 4 8.23478 4 8.5V19.5C4 19.7652 4.10543 20.0195 4.29297 20.207C4.48051 20.3946 4.73478 20.5 5 20.5H16C16.2652 20.5 16.5195 20.3946 16.707 20.207C16.8946 20.0195 17 19.7652 17 19.5V13.5C17 12.9477 17.4477 12.5 18 12.5C18.5523 12.5 19 12.9477 19 13.5V19.5C19 20.2957 18.6837 21.0585 18.1211 21.6211C17.5585 22.1837 16.7957 22.5 16 22.5H5C4.20435 22.5 3.44151 22.1837 2.87891 21.6211C2.3163 21.0585 2 20.2956 2 19.5Z" fill="#0F2FD8"/>
<path d="M20 9.5V4.5H15C14.4477 4.5 14 4.05228 14 3.5C14 2.94772 14.4477 2.5 15 2.5H21C21.5523 2.5 22 2.94772 22 3.5V9.5C22 10.0523 21.5523 10.5 21 10.5C20.4477 10.5 20 10.0523 20 9.5Z" fill="#0F2FD8"/>
<path d="M20.2929 2.79289C20.6834 2.40237 21.3164 2.40237 21.707 2.79289C22.0975 3.18342 22.0975 3.81643 21.707 4.20696L10.707 15.207C10.3164 15.5975 9.68342 15.5975 9.29289 15.207C8.90237 14.8164 8.90237 14.1834 9.29289 13.7929L20.2929 2.79289Z" fill="#0F2FD8"/>
</svg>
