<svg width="24" height="25" viewBox="0 0 24 25" fill="none" xmlns="http://www.w3.org/2000/svg">
<path d="M11.9998 1.5C12.3804 1.5 12.7278 1.71631 12.8963 2.05762L15.7527 7.8457L22.1443 8.78027C22.5209 8.83531 22.8336 9.09991 22.951 9.46191C23.0682 9.82384 22.9696 10.2209 22.6971 10.4863L18.074 14.9883L19.1658 21.3506C19.2302 21.7258 19.0754 22.1054 18.7674 22.3291C18.4595 22.5527 18.0515 22.5822 17.7146 22.4053L11.9998 19.3994L6.28496 22.4053C5.94815 22.5822 5.54009 22.5527 5.23223 22.3291C4.92425 22.1054 4.76944 21.7258 4.83379 21.3506L5.92461 14.9883L1.30254 10.4863C1.02999 10.2209 0.931401 9.82384 1.04863 9.46191C1.16601 9.09991 1.47871 8.83531 1.85527 8.78027L8.2459 7.8457L11.1033 2.05762L11.1746 1.93555C11.3592 1.66556 11.6668 1.5 11.9998 1.5ZM9.80644 9.20215C9.66092 9.49696 9.37979 9.70143 9.05449 9.74902L4.14726 10.4658L7.69707 13.9238C7.93285 14.1535 8.04066 14.4842 7.98516 14.8086L7.14726 19.6914L11.534 17.3848C11.8254 17.2315 12.1742 17.2315 12.4656 17.3848L16.8514 19.6914L16.0145 14.8086C15.9589 14.4842 16.0668 14.1535 16.3025 13.9238L19.8514 10.4658L14.9451 9.74902C14.6198 9.70143 14.3387 9.49696 14.1932 9.20215L11.9998 4.75781L9.80644 9.20215Z" fill="#0F2FD8"/>
</svg>
