<svg width="24" height="24" viewBox="0 0 24 24" fill="none" xmlns="http://www.w3.org/2000/svg">
<path d="M11.9998 1C12.3804 1 12.7278 1.21631 12.8963 1.55762L15.7527 7.3457L22.1443 8.28027C22.5209 8.33531 22.8336 8.59991 22.951 8.96191C23.0682 9.32384 22.9696 9.72087 22.6971 9.98633L18.074 14.4883L19.1658 20.8506C19.2302 21.2258 19.0754 21.6054 18.7674 21.8291C18.4595 22.0527 18.0515 22.0822 17.7146 21.9053L11.9998 18.8994L6.28496 21.9053C5.94815 22.0822 5.54009 22.0527 5.23223 21.8291C4.92425 21.6054 4.76944 21.2258 4.83379 20.8506L5.92461 14.4883L1.30254 9.98633C1.02999 9.72087 0.931401 9.32384 1.04863 8.96191C1.16601 8.59991 1.47871 8.33531 1.85527 8.28027L8.2459 7.3457L11.1033 1.55762L11.1746 1.43555C11.3592 1.16556 11.6668 1 11.9998 1ZM9.80644 8.70215C9.66092 8.99696 9.37979 9.20143 9.05449 9.24902L4.14726 9.96582L7.69707 13.4238C7.93285 13.6535 8.04066 13.9842 7.98516 14.3086L7.14726 19.1914L11.534 16.8848C11.8254 16.7315 12.1742 16.7315 12.4656 16.8848L16.8514 19.1914L16.0145 14.3086C15.9589 13.9842 16.0668 13.6535 16.3025 13.4238L19.8514 9.96582L14.9451 9.24902C14.6198 9.20143 14.3387 8.99696 14.1932 8.70215L11.9998 4.25781L9.80644 8.70215Z" fill="#FEE500"/>
</svg>
