<svg width="24" height="24" viewBox="0 0 24 24" fill="none" xmlns="http://www.w3.org/2000/svg">
<path d="M12.0506 1C12.4311 1.00015 12.7787 1.21643 12.9471 1.55762L15.8035 7.3457L22.1951 8.28027C22.5715 8.33544 22.8844 8.60003 23.0018 8.96191C23.1189 9.32372 23.0202 9.7209 22.7479 9.98633L18.1248 14.4883L19.2166 20.8506C19.2809 21.2256 19.126 21.6054 18.8182 21.8291C18.5104 22.0526 18.1022 22.0821 17.7654 21.9053L12.0506 18.8994L6.33574 21.9053C5.99902 22.0822 5.59084 22.0525 5.28301 21.8291C4.97503 21.6054 4.82022 21.2258 4.88457 20.8506L5.97539 14.4883L1.35332 9.98633C1.08077 9.72087 0.982183 9.32384 1.09941 8.96191C1.21682 8.59997 1.52953 8.33531 1.90605 8.28027L8.29668 7.3457L11.1541 1.55762L11.2254 1.43555C11.41 1.16567 11.7176 1 12.0506 1ZM16.3533 13.4238C16.3366 13.4214 16.3242 13.4359 16.3143 13.4648C16.3269 13.451 16.3398 13.437 16.3533 13.4238Z" fill="#FEE500"/>
</svg>
