<svg width="24" height="25" viewBox="0 0 24 25" fill="none" xmlns="http://www.w3.org/2000/svg">
<path d="M18 11.5C18 7.63401 14.866 4.5 11 4.5C7.13401 4.5 4 7.63401 4 11.5C4 15.366 7.13401 18.5 11 18.5C14.866 18.5 18 15.366 18 11.5ZM20 11.5C20 16.4706 15.9706 20.5 11 20.5C6.02944 20.5 2 16.4706 2 11.5C2 6.52944 6.02944 2.5 11 2.5C15.9706 2.5 20 6.52944 20 11.5Z" fill="#9E9E9E"/>
<path d="M15.9413 16.4433C16.3319 16.0528 16.9649 16.0528 17.3554 16.4433L21.705 20.7929C22.0955 21.1834 22.0955 21.8164 21.705 22.207C21.3145 22.5975 20.6815 22.5975 20.2909 22.207L15.9413 17.8573C15.5508 17.4668 15.5508 16.8338 15.9413 16.4433Z" fill="#9E9E9E"/>
</svg>
