<svg width="24" height="24" viewBox="0 0 24 24" fill="none" xmlns="http://www.w3.org/2000/svg">
<path d="M18 11C18 7.13401 14.866 4 11 4C7.13401 4 4 7.13401 4 11C4 14.866 7.13401 18 11 18C14.866 18 18 14.866 18 11ZM20 11C20 15.9706 15.9706 20 11 20C6.02944 20 2 15.9706 2 11C2 6.02944 6.02944 2 11 2C15.9706 2 20 6.02944 20 11Z" fill="#212121"/>
<path d="M15.9433 15.9429C16.3338 15.5524 16.9668 15.5524 17.3573 15.9429L21.707 20.2925C22.0975 20.6831 22.0975 21.3161 21.707 21.7066C21.3164 22.0971 20.6834 22.0971 20.2929 21.7066L15.9433 17.357C15.5528 16.9665 15.5528 16.3334 15.9433 15.9429Z" fill="#212121"/>
</svg>
