<svg width="24" height="25" viewBox="0 0 24 25" fill="none" xmlns="http://www.w3.org/2000/svg">
<path d="M12.0506 1.5C12.4311 1.50015 12.7787 1.71643 12.9471 2.05762L15.8035 7.8457L22.1951 8.78027C22.5715 8.83544 22.8844 9.10003 23.0018 9.46191C23.1189 9.82372 23.0202 10.2209 22.7479 10.4863L18.1248 14.9883L19.2166 21.3506C19.2809 21.7256 19.126 22.1054 18.8182 22.3291C18.5104 22.5526 18.1022 22.5821 17.7654 22.4053L12.0506 19.3994L6.33574 22.4053C5.99902 22.5822 5.59084 22.5525 5.28301 22.3291C4.97503 22.1054 4.82022 21.7258 4.88457 21.3506L5.97539 14.9883L1.35332 10.4863C1.08077 10.2209 0.982183 9.82384 1.09941 9.46191C1.21682 9.09997 1.52953 8.83531 1.90605 8.78027L8.29668 7.8457L11.1541 2.05762L11.2254 1.93555C11.41 1.66567 11.7176 1.5 12.0506 1.5ZM16.3533 13.9238C16.3366 13.9214 16.3242 13.9359 16.3143 13.9648C16.3269 13.951 16.3398 13.937 16.3533 13.9238Z" fill="#0F2FD8"/>
</svg>
