<svg width="24" height="24" viewBox="0 0 24 24" fill="none" xmlns="http://www.w3.org/2000/svg">
<path d="M17.2929 5.29302C17.6834 4.90249 18.3164 4.90249 18.707 5.29302C19.0975 5.68354 19.0975 6.31655 18.707 6.70708L6.70696 18.7071C6.31643 19.0976 5.68342 19.0976 5.29289 18.7071C4.90237 18.3166 4.90237 17.6835 5.29289 17.293L17.2929 5.29302Z" fill="#212121"/>
<path d="M5.29289 5.29302C5.68342 4.90249 6.31643 4.90249 6.70696 5.29302L18.707 17.293L18.7753 17.3692C19.0957 17.762 19.0731 18.341 18.707 18.7071C18.3408 19.0732 17.7618 19.0958 17.3691 18.7754L17.2929 18.7071L5.29289 6.70708C4.90237 6.31655 4.90237 5.68354 5.29289 5.29302Z" fill="#212121"/>
</svg>
