<svg width="16" height="16" viewBox="0 0 16 16" fill="none" xmlns="http://www.w3.org/2000/svg">
<path d="M11.5273 3.52925C11.7876 3.2689 12.2097 3.2689 12.47 3.52925C12.7304 3.7896 12.7304 4.21161 12.47 4.47195L4.47 12.472C4.20965 12.7323 3.78764 12.7323 3.52729 12.472C3.26694 12.2116 3.26694 11.7896 3.52729 11.5292L11.5273 3.52925Z" fill="#9E9E9E"/>
<path d="M3.52729 3.52925C3.78764 3.2689 4.20965 3.2689 4.47 3.52925L12.47 11.5292L12.5156 11.58C12.7291 11.8419 12.7141 12.2279 12.47 12.472C12.2259 12.716 11.8399 12.7311 11.5781 12.5175L11.5273 12.472L3.52729 4.47195C3.26694 4.21161 3.26694 3.7896 3.52729 3.52925Z" fill="#9E9E9E"/>
</svg>
